<?xml version="1.0" encoding="UTF-8"?>
<svg id="Layer_2" data-name="Layer 2" xmlns="http://www.w3.org/2000/svg" viewBox="0 0 558.54 171.49">
  <defs>
    <style>
      .cls-1 {
        fill: #231f20;
      }
    </style>
  </defs>
  <g id="Layer_1-2" data-name="Layer 1">
    <path class="cls-1" d="M522.81,65.5v71.45s35.73,0,35.73,0v29.77s-35.73,0-35.73,0h-33.35s0-29.77,0-29.77v-71.45s-86.94,0-86.94,0v23.82s29.77,0,29.77,0h33.35s0,23.82,0,23.82v23.82s0,29.77,0,29.77h-33.35s-63.12,0-63.12,0v-29.77s63.12,0,63.12,0v-23.82s-29.77,0-29.77,0h-33.35s0-23.82,0-23.82v-53.59s.07,0,.07,0h33.27s86.94,0,86.94,0V0s33.35,0,33.35,0v35.73s35.73,0,35.73,0v29.77s-35.73,0-35.73,0ZM132.19,78.54v-42.81s-33.35,0-33.35,0l-48.83,42.81v-42.81s-33.35,0-33.35,0H0s0,29.77,0,29.77h16.67s0,101.23,0,101.23h33.35s0-50.18,0-50.18l48.83-42.81v92.99s33.35,0,33.35,0v-50.18s48.83-42.81,48.83-42.81v92.99s33.35,0,33.35,0V35.73s-33.35,0-33.35,0l-48.83,42.81ZM362.04,101.23c0,38.81-31.46,70.26-70.26,70.26-38.81,0-70.26-31.46-70.26-70.26,0-38.81,31.46-70.26,70.26-70.26,38.81,0,70.26,31.46,70.26,70.26ZM331.07,101.23c0-21.7-17.6-39.3-39.3-39.3-21.7,0-39.3,17.6-39.3,39.3,0,21.7,17.6,39.3,39.3,39.3s39.3-17.6,39.3-39.3Z"/>
  </g>
</svg>